<svg width="620" height="620" viewBox="0 0 620 620" fill="none" xmlns="http://www.w3.org/2000/svg">
<path fill-rule="evenodd" clip-rule="evenodd" d="M435.192 1.86018C443.472 -1.31856 452.762 2.81755 455.941 11.0985L477.856 68.1879L618.735 435.192C621.914 443.472 617.778 452.762 609.497 455.941L185.404 618.735C177.123 621.914 167.833 617.778 164.654 609.497L1.86015 185.404C-1.31859 177.123 2.81751 167.833 11.0984 164.654L72.2658 141.174L435.192 1.86018ZM68.7832 176.918L37.6037 188.886L165.406 521.824L441.255 415.936L430.852 388.835L201.176 476.999C197.2 478.525 192.779 478.409 188.888 476.677C184.997 474.944 181.953 471.737 180.427 467.76L68.7832 176.918ZM419.34 358.847L380.761 258.345L353.66 268.748L392.239 369.25L419.34 358.847ZM362.251 380.761L351.847 353.66L251.345 392.239L261.749 419.341L362.251 380.761ZM231.761 430.852L142.031 197.098C140.505 193.122 140.62 188.701 142.353 184.81C144.085 180.919 147.293 177.875 151.27 176.349L442.112 64.7053L431.709 37.6037L98.7711 165.406L204.659 441.255L231.761 430.852ZM453.624 94.6932L177.775 200.581L189.744 231.761L419.419 143.597C423.396 142.07 427.816 142.186 431.707 143.918C435.598 145.651 438.642 148.858 440.169 152.835L551.812 443.678L582.992 431.709L453.624 94.6932ZM521.824 455.189L415.936 179.34L388.835 189.744L476.999 419.419C478.525 423.396 478.409 427.816 476.677 431.707C474.944 435.599 471.737 438.642 467.76 440.169L176.918 551.812L188.886 582.992L521.824 455.189ZM358.847 201.255L258.345 239.834L268.748 266.936L369.25 228.357L358.847 201.255ZM280.259 296.924L296.924 340.336L340.336 323.672L323.672 280.259L280.259 296.924ZM266.936 351.847L228.357 251.345L201.255 261.749L239.834 362.251L266.936 351.847Z" fill="black" fill-opacity="0.2"/>
</svg>
