<svg width="18" height="18" viewBox="0 0 18 18" fill="none" xmlns="http://www.w3.org/2000/svg">
<path d="M8.51786 0.837128C8.69624 0.387624 9.30376 0.387624 9.48214 0.837128L11.4557 5.81058C11.5309 6.00008 11.7009 6.12956 11.8961 6.14596L17.0188 6.57641C17.4818 6.61532 17.6695 7.22092 17.3168 7.53764L13.4138 11.0419C13.2651 11.1754 13.2002 11.3849 13.2456 11.5845L14.438 16.824C14.5458 17.2975 14.0543 17.6718 13.6579 17.4181L9.27219 14.6103C9.10508 14.5034 8.89492 14.5034 8.72781 14.6103L4.34208 17.4181C3.94569 17.6718 3.45419 17.2975 3.56196 16.824L4.75438 11.5845C4.79981 11.3849 4.73487 11.1754 4.58616 11.0419L0.683211 7.53764C0.33046 7.22092 0.518196 6.61532 0.981188 6.57641L6.10387 6.14596C6.29906 6.12956 6.46909 6.00008 6.54428 5.81058L8.51786 0.837128Z" stroke="black" stroke-opacity="0.87" stroke-linecap="round" stroke-linejoin="round"/>
</svg>
