<svg width="127" height="135" viewBox="0 0 127 135" fill="none" xmlns="http://www.w3.org/2000/svg">
<path d="M3.41474 87.2026C1.86273 89.5572 2.51586 92.7363 4.87046 94.2883L61.8136 131.822C64.1682 133.374 67.3474 132.721 68.8994 130.366L112.063 64.8815C113.615 62.5269 112.962 59.3477 110.607 57.7957L59.3583 24.0156C55.4321 21.4276 54.3442 16.1322 56.9321 12.206C59.5201 8.27975 64.8155 7.19184 68.7417 9.77978L121.414 44.4983C122.2 45.0162 123.258 44.7988 123.776 44.013C124.294 43.2272 124.077 42.1691 123.291 41.6511L70.6184 6.93262C65.1234 3.31064 57.7069 4.8343 54.085 10.3293C53.8541 10.6795 53.647 11.0372 53.4559 11.4013C53.3411 11.5012 53.2348 11.6191 53.1466 11.7529L3.41474 87.2026ZM52.3399 19.173C52.9308 22.2172 54.6943 25.0255 57.4816 26.8627L108.73 60.6429C109.513 61.159 109.732 62.2218 109.216 63.0048L66.0522 128.489C65.5361 129.272 64.4733 129.491 63.6903 128.975L6.74714 91.4412C5.96417 90.9251 5.74581 89.8622 6.2619 89.0793L52.3399 19.173Z" fill="black" fill-opacity="0.2"/>
<path d="M117.661 50.1926L66.4119 16.4125C65.626 15.8945 64.5679 16.1119 64.0499 16.8977C63.532 17.6835 63.7494 18.7417 64.5352 19.2596L115.784 53.0398C116.57 53.5577 117.628 53.3403 118.146 52.5545C118.664 51.7687 118.447 50.7106 117.661 50.1926Z" fill="black" fill-opacity="0.2"/>
</svg>
