<svg width="299" height="299" viewBox="0 0 299 299" fill="none" xmlns="http://www.w3.org/2000/svg">
<path d="M24.9764 128.46L4 149.436L128.46 273.896M24.9764 128.46L149.436 4L169.014 23.5779M24.9764 128.46L129.858 233.341L149.436 213.764M213.764 149.436L169.014 104.686M213.764 149.436L194.186 169.014M213.764 149.436L233.341 169.014L128.46 273.896M149.436 85.1086L169.014 65.5306L273.896 170.412M149.436 85.1086L104.686 129.858M149.436 85.1086L169.014 104.686M85.1086 149.436L64.1322 128.46L169.014 23.5779M85.1086 149.436L129.858 194.186M85.1086 149.436L104.686 129.858M169.014 23.5779L294.872 149.436L273.896 170.412M273.896 170.412L149.436 294.872L128.46 273.896M149.436 213.764L129.858 194.186M149.436 213.764L194.186 169.014M129.858 194.186L149.436 174.608M174.608 149.436L149.436 124.264M174.608 149.436L149.436 174.608M174.608 149.436L194.186 169.014M149.436 124.264L124.264 149.436M149.436 124.264L169.014 104.686M124.264 149.436L149.436 174.608M124.264 149.436L104.686 129.858" stroke="black" stroke-opacity="0.2" stroke-width="8" stroke-linejoin="round"/>
</svg>
