<svg width="381" height="347" viewBox="0 0 381 347" fill="none" xmlns="http://www.w3.org/2000/svg">
<path d="M139.281 251.213L94.6542 206.586L105.915 195.325C118.427 182.813 130.523 175.445 142.201 173.22C154.157 170.718 169.033 172.525 186.828 178.642L224.365 191.155C241.048 196.716 255.089 200.191 266.489 201.582C278.167 202.694 289.289 197.967 299.855 187.401C307.919 179.338 313.48 170.996 316.538 162.376C319.597 153.757 318.762 144.025 314.036 133.181C309.865 122.337 300.689 109.825 286.509 95.6445C270.382 79.5176 255.923 68.6737 243.133 63.1127C230.621 57.8297 218.943 56.9956 208.099 60.6102C197.255 64.2249 186.133 71.7322 174.733 83.1323L168.476 89.3884L123.849 44.7614L130.523 38.0882C147.206 21.4052 165.974 10.1441 186.828 4.30511C208.238 -1.53395 230.899 -0.560777 254.811 7.22463C279.279 15.01 304.026 31.415 329.05 56.4395C351.85 79.2396 366.726 101.067 373.677 121.92C381.185 142.774 382.158 162.377 376.597 180.728C371.592 199.079 361.86 215.484 347.402 229.943C334.333 243.011 320.431 251.353 305.694 254.967C291.514 258.582 277.333 259.416 263.152 257.47C248.972 255.523 235.487 252.326 222.696 247.877L187.662 234.53C178.486 231.472 171.118 230.499 165.557 231.611C160.274 232.445 154.991 235.504 149.708 240.787L139.281 251.213ZM51.6955 346.307L0.812323 295.423L62.5394 233.696L113.423 284.579L51.6955 346.307Z" fill="black" fill-opacity="0.2"/>
</svg>
